<?xml version="1.0" encoding="UTF-8"?>
<!DOCTYPE svg PUBLIC "-//W3C//DTD SVG 1.1//EN" "http://www.w3.org/Graphics/SVG/1.1/DTD/svg11.dtd">
<!-- Creator: CorelDRAW X8 -->
<svg xmlns="http://www.w3.org/2000/svg" xml:space="preserve" width="750mm" height="750mm" version="1.1" style="shape-rendering:geometricPrecision; text-rendering:geometricPrecision; image-rendering:optimizeQuality; fill-rule:evenodd; clip-rule:evenodd"
viewBox="0 0 75000 75000"
 xmlns:xlink="http://www.w3.org/1999/xlink">
 <defs>
  <style type="text/css">
   <![CDATA[
    .fil0 {fill:#6AAD06}
   ]]>
  </style>
 </defs>
 <g id="Слой_x0020_1">
  <metadata id="CorelCorpID_0Corel-Layer"/>
  <g id="_1023771520">
   <g id="_2525930472480">
    <path class="fil0" d="M64730 66531l-3862 0c-4518,-3860 -11159,-6139 -18409,-6330l0 -5849 4563 -4563c834,155 1681,232 2527,232 3904,0 7827,-1614 10745,-4532 3689,-3690 5294,-8984 4188,-13817 -85,-371 -375,-661 -745,-746 -4833,-1106 -10128,500 -13817,4189 -3551,3551 -5170,8589 -4300,13272l-3161 3161 0 -18278 2977 -2977c575,98 1157,146 1739,146 2908,0 5828,-1201 8001,-3373 2746,-2745 3940,-6689 3115,-10292 -84,-370 -374,-659 -745,-744 -3602,-825 -7546,369 -10292,3115 -2609,2609 -3816,6298 -3224,9749l-1571 1572 0 -1917c0,-3061 -1182,-5939 -3329,-8116 589,-3448 -618,-7134 -3224,-9741 -2747,-2747 -6690,-3940 -10293,-3116 -370,85 -660,375 -744,745 -825,3602 369,7546 3115,10292 2172,2172 5092,3373 8000,3373 585,0 1169,-49 1747,-148 1770,1802 2745,4181 2745,6711l0 14540 -3162 -3162c870,-4682 -748,-9720 -4300,-13271 -3689,-3690 -8983,-5295 -13817,-4189 -370,86 -660,375 -744,746 -1107,4833 498,10127 4188,13816 2918,2919 6840,4533 10744,4533 847,0 1693,-77 2527,-233l4564 4564 0 14308c-7251,191 -13891,2469 -18409,6330l-3862 0c-548,0 -991,443 -991,991 0,547 443,991 991,991l46525 0c547,0 990,-444 990,-992 0,-547 -443,-990 -990,-990l0 0zm-13408 -30015c3052,-3052 7349,-4469 11352,-3782 688,4004 -730,8300 -3782,11353 -2735,2735 -6470,4156 -10096,3927l9255 -9254c386,-387 386,-1015 0,-1402 -387,-387 -1015,-387 -1402,0l-9255 9254c-228,-3626 1192,-7361 3928,-10096zm-2666 -15968c2108,-2109 5052,-3113 7821,-2704 409,2768 -596,5713 -2703,7821 -1776,1775 -4145,2768 -6503,2792l5702 -5702c388,-386 388,-1014 0,-1402 -387,-386 -1014,-386 -1402,0l-5708 5708c21,-2361 1014,-4736 2793,-6513l0 0zm-21973 -11157c2768,-409 5713,595 7821,2703 1775,1776 2768,4145 2792,6502l-5702 -5702c-387,-386 -1015,-386 -1402,0 -386,388 -386,1015 0,1402l5708 5708c-2361,-21 -4735,-1013 -6513,-2793 -2109,-2107 -3113,-5052 -2704,-7820l0 0zm-2640 26236c-3054,-3052 -4470,-7349 -3782,-11351 4002,-689 8299,729 11352,3782 2735,2734 4156,6469 3927,10095l-9255 -9255c-387,-386 -1014,-386 -1401,0 -388,388 -388,1016 0,1402l9254 9255c-3626,229 -7360,-1192 -10096,-3928l1 0zm17424 26542c6036,0 11835,1599 16087,4362l-32173 0c4251,-2763 10050,-4362 16086,-4362z"/>
    <g>
    </g>
    <g>
    </g>
    <g>
    </g>
    <g>
    </g>
    <g>
    </g>
    <g>
    </g>
    <g>
    </g>
    <g>
    </g>
    <g>
    </g>
    <g>
    </g>
    <g>
    </g>
    <g>
    </g>
    <g>
    </g>
    <g>
    </g>
    <g>
    </g>
   </g>
  </g>
 </g>
</svg>
